<svg width="201" height="97" viewBox="0 0 201 97" fill="none" xmlns="http://www.w3.org/2000/svg">
<path d="M0.96875 39.4375C0.5 36.9062 0.570312 34.2578 1.17969 31.4922C1.83594 28.6797 2.86719 25.8906 4.27344 23.125C5.67969 20.3594 7.41406 17.7109 9.47656 15.1797C11.5391 12.6016 13.7422 10.2812 16.0859 8.21875C18.4766 6.15625 20.9609 4.42188 23.5391 3.01562C26.1641 1.60938 28.7188 0.648438 31.2031 0.132812C31.9531 0.132812 32.6094 0.367188 33.1719 0.835938C33.7812 1.30469 34.2969 1.89062 34.7188 2.59375C35.1406 3.29688 35.4453 4.04687 35.6328 4.84375C35.8672 5.64063 35.9844 6.36719 35.9844 7.02344V13.8438C35.9844 14.3125 35.7969 14.6172 35.4219 14.7578C35.0469 14.8516 34.7188 14.8984 34.4375 14.8984C34.1094 14.8984 33.7109 14.8516 33.2422 14.7578C32.7734 14.6641 32.5391 14.3594 32.5391 13.8438C32.5391 13.6562 32.5156 13.3516 32.4688 12.9297C32.4219 12.5078 32.375 12.0391 32.3281 11.5234C32.2812 11.0078 32.2344 10.5156 32.1875 10.0469C32.1875 9.57812 32.1875 9.27344 32.1875 9.13281C32.1875 9.03906 32.1641 8.73438 32.1172 8.21875C32.1172 7.65625 32.0703 7.09375 31.9766 6.53125C31.8828 5.96875 31.7422 5.45312 31.5547 4.98438C31.3672 4.51563 31.1328 4.28125 30.8516 4.28125H28.3906C28.3906 4.28125 28.1797 4.39844 27.7578 4.63281C27.3359 4.82031 26.8438 5.05469 26.2812 5.33594C25.7188 5.61719 25.1562 5.92188 24.5938 6.25C24.0312 6.53125 23.6094 6.78906 23.3281 7.02344C23.1875 7.11719 22.9531 7.28125 22.625 7.51562C22.3438 7.75 22.0391 7.98437 21.7109 8.21875C21.3828 8.45313 21.0781 8.6875 20.7969 8.92188C20.5156 9.15625 20.3047 9.32031 20.1641 9.41406C17.6328 11.8516 15.4297 14.125 13.5547 16.2344C11.6797 18.2969 10.1094 20.4531 8.84375 22.7031C7.57812 24.9531 6.61719 27.3906 5.96094 30.0156C5.35156 32.5938 5.04687 35.6641 5.04687 39.2266C5.04687 40.6328 5.11719 42.2031 5.25781 43.9375C5.44531 45.625 5.70312 47.3594 6.03125 49.1406C6.40625 50.9219 6.92187 52.6797 7.57812 54.4141C8.23437 56.1016 9.05469 57.6016 10.0391 58.9141C11.0234 60.2266 12.2187 61.2812 13.625 62.0781C15.0312 62.875 16.6953 63.2734 18.6172 63.2734H20.1641C22.2734 62.5703 24.125 61.9375 25.7187 61.375C27.3594 60.7656 28.8125 60.1562 30.0781 59.5469C31.3906 58.9375 32.5625 58.2812 33.5938 57.5781C34.6719 56.8281 35.7031 55.9375 36.6875 54.9062C37.7188 53.875 38.7734 52.6328 39.8516 51.1797C40.9297 49.7266 42.1484 48.0156 43.5078 46.0469C43.5547 46.0469 43.625 46.0469 43.7188 46.0469C43.8125 46 43.9062 45.9766 44 45.9766C44.8438 45.9766 45.2656 46.3984 45.2656 47.2422C45.2656 48.3203 44.9844 49.5391 44.4219 50.8984C43.9062 52.2109 42.9219 53.6641 41.4688 55.2578C40.0625 56.8516 38.0703 58.5391 35.4922 60.3203C32.9609 62.0547 29.7031 63.8125 25.7187 65.5938C24.9687 65.9219 24.3125 66.2031 23.75 66.4375C23.1875 66.625 22.6484 66.7656 22.1328 66.8594C21.6172 66.9531 21.0781 67 20.5156 67C20 67.0469 19.4141 67.0703 18.7578 67.0703C16.3203 67.0703 14.1875 66.6484 12.3594 65.8047C10.5781 64.9609 9.03125 63.8359 7.71875 62.4297C6.40625 60.9766 5.30469 59.3359 4.41406 57.5078C3.57031 55.6328 2.89062 53.6641 2.375 51.6016C1.85937 49.4922 1.48437 47.4062 1.25 45.3438C1.0625 43.2344 0.96875 41.2656 0.96875 39.4375ZM43.4375 61.5156C43.4375 61.4688 43.4609 61.3047 43.5078 61.0234C43.5547 60.7422 43.6016 60.4609 43.6484 60.1797C43.6953 59.8516 43.7422 59.5703 43.7891 59.3359C43.8359 59.0547 43.8594 58.8672 43.8594 58.7734V58.4922V58.0703L44.8438 53.6406C45.6406 51.9531 46.4609 50.3359 47.3047 48.7891C48.1953 47.2422 49.2031 45.8828 50.3281 44.7109C51.4531 43.5391 52.7422 42.6016 54.1953 41.8984C55.6953 41.1953 57.5 40.8438 59.6094 40.8438C60.0312 40.8438 60.5469 40.9844 61.1562 41.2656C61.8125 41.5 62.4453 41.8047 63.0547 42.1797C63.7109 42.5547 64.2969 42.9531 64.8125 43.375C65.375 43.75 65.7969 44.1016 66.0781 44.4297C67.5312 44.1953 68.5859 44.0781 69.2422 44.0781C69.8984 44.0312 70.4609 44.0078 70.9297 44.0078C71.3984 43.9609 71.8906 43.8672 72.4062 43.7266C72.9688 43.5859 73.8125 43.2812 74.9375 42.8125C75.7344 42.5781 76.5078 42.4609 77.2578 42.4609C77.5859 42.4609 77.8906 42.6016 78.1719 42.8828C78.5 43.1641 78.6641 43.4922 78.6641 43.8672C78.6641 44.3359 78.5 44.7578 78.1719 45.1328C77.8438 45.5078 77.4453 45.7422 76.9766 45.8359L68.1875 47.8047L67.4141 48.1562C67.3672 50.6875 66.8047 53.1016 65.7266 55.3984C64.6484 57.6953 63.2188 59.7109 61.4375 61.4453C59.6562 63.1797 57.5938 64.5625 55.25 65.5938C52.9062 66.5781 50.4688 67.0703 47.9375 67.0703C47.75 67.0703 47.4453 67.0469 47.0234 67C46.6016 67 46.3203 67 46.1797 67C45.1484 66.5781 44.4219 65.8047 44 64.6797C43.625 63.5547 43.4375 62.5 43.4375 61.5156ZM47.9375 62.9219C47.9844 63.1562 48.1719 63.2734 48.5 63.2734C48.8281 63.2734 49.0625 63.2734 49.2031 63.2734C50.8906 63.2734 52.625 62.8516 54.4062 62.0078C56.1875 61.1172 57.7812 59.9922 59.1875 58.6328C60.6406 57.2266 61.8125 55.6562 62.7031 53.9219C63.6406 52.1406 64.1094 50.3594 64.1094 48.5781C62.6094 48.5781 61.1094 48.4609 59.6094 48.2266C58.1094 47.9453 56.6562 47.8047 55.25 47.8047H55.1797L49.3438 53.9922C49.0156 54.3203 48.7578 54.7656 48.5703 55.3281C48.3828 55.8906 48.2422 56.5 48.1484 57.1562C48.0547 57.8125 47.9844 58.4688 47.9375 59.125C47.8906 59.7812 47.8672 60.3672 47.8672 60.8828C47.8672 61.0234 47.8672 61.3516 47.8672 61.8672C47.8672 62.3828 47.8906 62.7344 47.9375 62.9219ZM75.4297 89.6406C75.4297 89.5 75.4297 89.2656 75.4297 88.9375C75.4297 88.6562 75.4297 88.3516 75.4297 88.0234C75.4297 87.7422 75.4297 87.4844 75.4297 87.25C75.4297 87.0625 75.4297 86.9453 75.4297 86.8984L77.8906 64.8906C78.2188 63.1562 78.5 61.7969 78.7344 60.8125C78.9688 59.7812 79.1562 59.0078 79.2969 58.4922C79.4844 57.9297 79.6719 57.5547 79.8594 57.3672L84.9922 40.9141C85.1797 40.3516 85.5312 39.5547 86.0469 38.5234C86.5625 37.4453 87.1484 36.3906 87.8047 35.3594C88.5078 34.3281 89.2578 33.4609 90.0547 32.7578C90.8516 32.0078 91.6484 31.6328 92.4453 31.6328C92.7734 31.6328 93.0547 31.75 93.2891 31.9844C93.5234 32.2188 93.7109 32.5 93.8516 32.8281C94.0391 33.1562 94.1562 33.5078 94.2031 33.8828C94.2969 34.2578 94.3438 34.5625 94.3438 34.7969C94.3438 36.9531 94.0391 39.1562 93.4297 41.4062C92.8672 43.6562 92.1172 45.8828 91.1797 48.0859C90.2422 50.2422 89.1172 52.3047 87.8047 54.2734C86.4922 56.2422 85.1094 57.9766 83.6562 59.4766L82.6016 63.2734C87.8984 63.1797 93.0312 62.3125 98 60.6719C103.016 59.0312 107.82 57.0156 112.414 54.625H112.766C113.188 54.625 113.469 54.7891 113.609 55.1172C113.797 55.3984 113.891 55.7031 113.891 56.0312C113.891 56.4062 113.82 56.7344 113.68 57.0156C113.539 57.2969 113.234 57.5547 112.766 57.7891C109.062 60.0859 105.102 61.9609 100.883 63.4141C96.6641 64.8672 92.3984 65.9688 88.0859 66.7188C88.9297 67.6562 89.6328 68.4297 90.1953 69.0391C90.7578 69.6484 91.2031 70.2578 91.5312 70.8672C91.9062 71.5234 92.1641 72.2734 92.3047 73.1172C92.4922 73.9609 92.5859 75.1094 92.5859 76.5625C92.5859 80.2188 91.7188 83.4062 89.9844 86.125C88.2969 88.8906 86.0703 91.4453 83.3047 93.7891C82.6484 94.3047 81.8281 94.8438 80.8438 95.4062C79.9062 95.9688 78.9922 96.25 78.1016 96.25C77.3047 96.25 76.7188 95.9922 76.3438 95.4766C75.9688 94.9609 75.7109 94.3516 75.5703 93.6484C75.4297 92.9922 75.3828 92.2891 75.4297 91.5391C75.4297 90.7891 75.4297 90.1562 75.4297 89.6406ZM81.1953 69.7422C81.0078 71.1953 80.7969 72.8359 80.5625 74.6641C80.3281 76.4922 80.1172 78.3672 79.9297 80.2891C79.7422 82.2109 79.5781 84.1328 79.4375 86.0547C79.2969 87.9766 79.2266 89.7812 79.2266 91.4688C80.4922 91.4688 81.7109 90.9062 82.8828 89.7812C84.1016 88.7031 85.1797 87.3672 86.1172 85.7734C87.0547 84.2266 87.8281 82.6328 88.4375 80.9922C89.0469 79.3516 89.375 77.9922 89.4219 76.9141C89.5156 75.6016 89.4219 74.4766 89.1406 73.5391C88.9062 72.6484 88.5078 71.875 87.9453 71.2188C87.3828 70.6094 86.6562 70.0938 85.7656 69.6719C84.875 69.25 83.8203 68.8281 82.6016 68.4062H82.25C81.9219 68.4062 81.6875 68.5469 81.5469 68.8281C81.4062 69.1094 81.2891 69.4141 81.1953 69.7422ZM89.8438 39.5781C89.7969 39.5781 89.7031 39.7656 89.5625 40.1406C89.4219 40.4688 89.2344 40.8438 89 41.2656C88.8125 41.6875 88.625 42.1328 88.4375 42.6016C88.2969 43.0703 88.1797 43.4219 88.0859 43.6562C87.9453 44.0312 87.7812 44.5234 87.5938 45.1328C87.4062 45.6953 87.2188 46.2812 87.0312 46.8906C86.8906 47.4531 86.75 47.9688 86.6094 48.4375C86.4688 48.8594 86.3984 49.0938 86.3984 49.1406V49.5625C87.2891 47.9688 88.1094 46.3047 88.8594 44.5703C89.6094 42.7891 90.0312 41.0078 90.125 39.2266L89.8438 39.5781ZM110.516 89.6406C110.516 89.5 110.516 89.2656 110.516 88.9375C110.516 88.6562 110.516 88.3516 110.516 88.0234C110.516 87.7422 110.516 87.4844 110.516 87.25C110.516 87.0625 110.516 86.9453 110.516 86.8984L112.977 64.8906C113.305 63.1562 113.586 61.7969 113.82 60.8125C114.055 59.7812 114.242 59.0078 114.383 58.4922C114.57 57.9297 114.758 57.5547 114.945 57.3672L120.078 40.9141C120.266 40.3516 120.617 39.5547 121.133 38.5234C121.648 37.4453 122.234 36.3906 122.891 35.3594C123.594 34.3281 124.344 33.4609 125.141 32.7578C125.938 32.0078 126.734 31.6328 127.531 31.6328C127.859 31.6328 128.141 31.75 128.375 31.9844C128.609 32.2188 128.797 32.5 128.938 32.8281C129.125 33.1563 129.242 33.5078 129.289 33.8828C129.383 34.2578 129.43 34.5625 129.43 34.7969C129.43 36.9531 129.125 39.1563 128.516 41.4062C127.953 43.6562 127.203 45.8828 126.266 48.0859C125.328 50.2422 124.203 52.3047 122.891 54.2734C121.578 56.2422 120.195 57.9766 118.742 59.4766L117.688 63.2734C122.984 63.1797 128.117 62.3125 133.086 60.6719C138.102 59.0312 142.906 57.0156 147.5 54.625H147.852C148.273 54.625 148.555 54.7891 148.695 55.1172C148.883 55.3984 148.977 55.7031 148.977 56.0312C148.977 56.4062 148.906 56.7344 148.766 57.0156C148.625 57.2969 148.32 57.5547 147.852 57.7891C144.148 60.0859 140.188 61.9609 135.969 63.4141C131.75 64.8672 127.484 65.9688 123.172 66.7188C124.016 67.6562 124.719 68.4297 125.281 69.0391C125.844 69.6484 126.289 70.2578 126.617 70.8672C126.992 71.5234 127.25 72.2734 127.391 73.1172C127.578 73.9609 127.672 75.1094 127.672 76.5625C127.672 80.2188 126.805 83.4062 125.07 86.125C123.383 88.8906 121.156 91.4453 118.391 93.7891C117.734 94.3047 116.914 94.8438 115.93 95.4062C114.992 95.9688 114.078 96.25 113.188 96.25C112.391 96.25 111.805 95.9922 111.43 95.4766C111.055 94.9609 110.797 94.3516 110.656 93.6484C110.516 92.9922 110.469 92.2891 110.516 91.5391C110.516 90.7891 110.516 90.1562 110.516 89.6406ZM116.281 69.7422C116.094 71.1953 115.883 72.8359 115.648 74.6641C115.414 76.4922 115.203 78.3672 115.016 80.2891C114.828 82.2109 114.664 84.1328 114.523 86.0547C114.383 87.9766 114.312 89.7812 114.312 91.4688C115.578 91.4688 116.797 90.9062 117.969 89.7812C119.188 88.7031 120.266 87.3672 121.203 85.7734C122.141 84.2266 122.914 82.6328 123.523 80.9922C124.133 79.3516 124.461 77.9922 124.508 76.9141C124.602 75.6016 124.508 74.4766 124.227 73.5391C123.992 72.6484 123.594 71.875 123.031 71.2188C122.469 70.6094 121.742 70.0938 120.852 69.6719C119.961 69.25 118.906 68.8281 117.688 68.4062H117.336C117.008 68.4062 116.773 68.5469 116.633 68.8281C116.492 69.1094 116.375 69.4141 116.281 69.7422ZM124.93 39.5781C124.883 39.5781 124.789 39.7656 124.648 40.1406C124.508 40.4688 124.32 40.8438 124.086 41.2656C123.898 41.6875 123.711 42.1328 123.523 42.6016C123.383 43.0703 123.266 43.4219 123.172 43.6562C123.031 44.0312 122.867 44.5234 122.68 45.1328C122.492 45.6953 122.305 46.2812 122.117 46.8906C121.977 47.4531 121.836 47.9688 121.695 48.4375C121.555 48.8594 121.484 49.0938 121.484 49.1406V49.5625C122.375 47.9688 123.195 46.3047 123.945 44.5703C124.695 42.7891 125.117 41.0078 125.211 39.2266L124.93 39.5781ZM147.641 56.0312C147.734 55.75 147.875 55.2578 148.062 54.5547C148.297 53.8047 148.508 53.0078 148.695 52.1641C148.93 51.3203 149.117 50.5234 149.258 49.7734C149.445 48.9766 149.586 48.4375 149.68 48.1562C149.961 47.0312 150.289 45.8125 150.664 44.5C151.086 43.1875 151.648 41.9688 152.352 40.8438C153.055 39.7188 153.945 38.8047 155.023 38.1016C156.148 37.3516 157.531 36.9766 159.172 36.9766C159.781 36.9766 160.203 37.2109 160.438 37.6797C160.719 38.1016 160.953 38.5703 161.141 39.0859C161.141 39.2734 161.141 39.625 161.141 40.1406C161.188 40.6094 161.211 40.9375 161.211 41.125C161.211 43.1406 161 44.9219 160.578 46.4688C160.203 48.0156 159.594 49.4453 158.75 50.7578C157.953 52.0703 156.969 53.3125 155.797 54.4844C154.625 55.6094 153.289 56.8047 151.789 58.0703C151.742 58.2109 151.672 58.4453 151.578 58.7734C151.484 59.1016 151.438 59.3359 151.438 59.4766V59.6172C151.438 60.4609 151.578 61.1406 151.859 61.6562C152.141 62.1719 152.516 62.5938 152.984 62.9219C153.5 63.2031 154.062 63.3906 154.672 63.4844C155.328 63.5312 156.031 63.5547 156.781 63.5547C158.984 63.5547 161.094 63.25 163.109 62.6406C165.125 62.0312 166.977 61.0469 168.664 59.6875C168.898 59.4531 169.18 59.125 169.508 58.7031C169.883 58.2344 170.258 57.7656 170.633 57.2969C171.008 56.8281 171.406 56.4297 171.828 56.1016C172.25 55.7266 172.695 55.5391 173.164 55.5391C173.633 55.5391 173.914 55.7266 174.008 56.1016C174.102 56.4766 174.148 56.8516 174.148 57.2266C174.148 58.2578 173.82 59.2422 173.164 60.1797C172.555 61.0703 171.734 61.8906 170.703 62.6406C169.719 63.3438 168.57 63.9766 167.258 64.5391C165.992 65.1016 164.727 65.5703 163.461 65.9453C162.195 66.3203 160.977 66.6016 159.805 66.7891C158.68 66.9766 157.719 67.0703 156.922 67.0703C154.438 67.0703 152.352 66.6719 150.664 65.875C149.023 65.0312 147.898 63.3672 147.289 60.8828L147.641 56.0312ZM157.695 42.1797C156.758 43.0234 156.008 43.7969 155.445 44.5C154.93 45.1562 154.508 45.8594 154.18 46.6094C153.898 47.3125 153.641 48.0859 153.406 48.9297C153.219 49.7734 153.008 50.7578 152.773 51.8828C153.664 51.1797 154.391 50.4766 154.953 49.7734C155.562 49.0703 156.055 48.3438 156.43 47.5938C156.805 46.8438 157.086 46.0469 157.273 45.2031C157.461 44.3125 157.602 43.3047 157.695 42.1797ZM173.656 56.0312C173.75 55.75 173.891 55.2578 174.078 54.5547C174.312 53.8047 174.523 53.0078 174.711 52.1641C174.945 51.3203 175.133 50.5234 175.273 49.7734C175.461 48.9766 175.602 48.4375 175.695 48.1562C175.977 47.0312 176.305 45.8125 176.68 44.5C177.102 43.1875 177.664 41.9688 178.367 40.8438C179.07 39.7188 179.961 38.8047 181.039 38.1016C182.164 37.3516 183.547 36.9766 185.188 36.9766C185.797 36.9766 186.219 37.2109 186.453 37.6797C186.734 38.1016 186.969 38.5703 187.156 39.0859C187.156 39.2734 187.156 39.625 187.156 40.1406C187.203 40.6094 187.227 40.9375 187.227 41.125C187.227 43.1406 187.016 44.9219 186.594 46.4688C186.219 48.0156 185.609 49.4453 184.766 50.7578C183.969 52.0703 182.984 53.3125 181.812 54.4844C180.641 55.6094 179.305 56.8047 177.805 58.0703C177.758 58.2109 177.688 58.4453 177.594 58.7734C177.5 59.1016 177.453 59.3359 177.453 59.4766V59.6172C177.453 60.4609 177.594 61.1406 177.875 61.6562C178.156 62.1719 178.531 62.5938 179 62.9219C179.516 63.2031 180.078 63.3906 180.688 63.4844C181.344 63.5312 182.047 63.5547 182.797 63.5547C185 63.5547 187.109 63.25 189.125 62.6406C191.141 62.0312 192.992 61.0469 194.68 59.6875C194.914 59.4531 195.195 59.125 195.523 58.7031C195.898 58.2344 196.273 57.7656 196.648 57.2969C197.023 56.8281 197.422 56.4297 197.844 56.1016C198.266 55.7266 198.711 55.5391 199.18 55.5391C199.648 55.5391 199.93 55.7266 200.023 56.1016C200.117 56.4766 200.164 56.8516 200.164 57.2266C200.164 58.2578 199.836 59.2422 199.18 60.1797C198.57 61.0703 197.75 61.8906 196.719 62.6406C195.734 63.3438 194.586 63.9766 193.273 64.5391C192.008 65.1016 190.742 65.5703 189.477 65.9453C188.211 66.3203 186.992 66.6016 185.82 66.7891C184.695 66.9766 183.734 67.0703 182.938 67.0703C180.453 67.0703 178.367 66.6719 176.68 65.875C175.039 65.0312 173.914 63.3672 173.305 60.8828L173.656 56.0312ZM183.711 42.1797C182.773 43.0234 182.023 43.7969 181.461 44.5C180.945 45.1562 180.523 45.8594 180.195 46.6094C179.914 47.3125 179.656 48.0859 179.422 48.9297C179.234 49.7734 179.023 50.7578 178.789 51.8828C179.68 51.1797 180.406 50.4766 180.969 49.7734C181.578 49.0703 182.07 48.3438 182.445 47.5938C182.82 46.8438 183.102 46.0469 183.289 45.2031C183.477 44.3125 183.617 43.3047 183.711 42.1797Z" fill="#444A4A"/>
</svg>
